<svg  xmlns="http://www.w3.org/2000/svg" xmlns:xlink="http://www.w3.org/1999/xlink" contentstyletype="text/css" preserveAspectRatio="none" style="width: 1500px; height: 681px; background: rgb(255, 255, 255); --darkreader-inline-bgimage: initial; --darkreader-inline-bgcolor: #181a1b;" version="1.1" viewBox="0 0 1500 681" zoomAndPan="magnify" data-darkreader-inline-bgimage="" data-darkreader-inline-bgcolor="">
                        <defs>
		<style type="text/css">
			.land
			{
				fill: #CCCCCC;
				fill-opacity: 1;
				stroke:white;
				stroke-opacity: 1;
				stroke-width:2;
			}
			.land:hover
			{
				fill: green
				
			}
		</style><style class="darkreader darkreader--sync" media="screen"></style>

		<!-- All areas are listed in the line below. You can use this list in your script. -->
		<!--{id:"US-AK"},{id:"US-AL"},{id:"US-AR"},{id:"US-AZ"},{id:"US-CA"},{id:"US-CO"},{id:"US-CT"},{id:"US-DC"},{id:"US-DE"},{id:"US-FL"},{id:"US-GA"},{id:"US-HI"},{id:"US-IA"},{id:"US-ID"},{id:"US-IL"},{id:"US-IN"},{id:"US-KS"},{id:"US-KY"},{id:"US-LA"},{id:"US-MA"},{id:"US-MD"},{id:"US-ME"},{id:"US-MI"},{id:"US-MN"},{id:"US-MO"},{id:"US-MS"},{id:"US-MT"},{id:"US-NC"},{id:"US-ND"},{id:"US-NE"},{id:"US-NH"},{id:"US-NJ"},{id:"US-NM"},{id:"US-NV"},{id:"US-NY"},{id:"US-OH"},{id:"US-OK"},{id:"US-OR"},{id:"US-PA"},{id:"US-RI"},{id:"US-SC"},{id:"US-SD"},{id:"US-TN"},{id:"US-TX"},{id:"US-UT"},{id:"US-VA"},{id:"US-VT"},{id:"US-WA"},{id:"US-WI"},{id:"US-WV"},{id:"US-WY"}-->

	</defs>
                    <style>
g {
    cursor:pointer
}

.image-line {
    stroke: #A80036;
    stroke-width: 1;
    fill:none;
}

.image-arrow {
    fill: #A80036;
}
.image-rect {
    fill: none;
}

.image-mapper-point {
    fill: none;
    stroke: rgba(0, 0, 0, 0);
}
</style>
                    <g>
		
		<g><path class="land" d="M 541.9399955749511 97.0701257324219 L 544.8099955749512 105.5001257324219 L 547.8299955749512 102.54012573242193 L 557.2799955749512 104.90012573242194 L 556.4299955749511 108.83012573242195 L 564.8799955749512 112.82012573242196 L 564.9060233421984 112.81540900359626 L 547.0000000000001 134 L 547 134 L 547.0000000000001 134 L 600 161 L 519 191 L 596 229 L 518 242 L 542.6626092125823 265.67610484407896 L 538.6999955749511 268.4801257324218 L 532.2499955749512 277.96012573242183 L 519.7099955749511 287.1601257324219 L 524.3199955749512 295.2801257324219 L 515.3499955749512 304.96012573242183 L 505.8599955749512 309.8501257324218 L 497.1299955749512 313.0201257324218 L 493.9999955749512 319.21012573242183 L 479.9899955749512 324.45012573242184 L 476.0699955749512 330.80012573242186 L 465.1999955749512 335.05012573242186 L 459.8099955749512 332.7201257324218 L 451.2399955749512 335.03012573242177 L 441.7199955749512 337.9501257324217 L 433.6599955749512 341.04012573242176 L 418.3699955749512 341.3801257324218 L 417.7299955749512 338.6401257324218 L 428.51999557495117 334.3901257324218 L 437.6699955749512 332.0201257324218 L 448.2799955749512 326.2601257324218 L 458.7399955749512 326.94012573242173 L 464.0499955749512 321.8601257324217 L 477.01999557495117 315.44012573242173 L 479.3899955749512 312.8601257324217 L 486.26999557495117 308.80012573242175 L 489.7499955749512 297.8301257324217 L 495.3299955749512 289.7701257324218 L 485.5499955749512 292.6001257324218 L 483.5599955749512 289.55012573242186 L 478.26999557495117 294.1001257324218 L 474.7999955749512 285.5201257324218 L 471.5799955749512 290.3901257324218 L 470.3199955749512 282.3801257324218 L 461.3199955749512 286.57012573242184 L 456.6099955749512 285.45012573242184 L 458.0599955749512 276.5001257324218 L 460.7299955749512 271.3901257324218 L 457.1899955749512 264.93012573242174 L 446.7799955749512 265.32012573242173 L 442.3799955749512 256.7101257324217 L 438.3399955749512 251.78012573242177 L 440.64999557495116 243.3601257324218 L 436.9299955749512 235.45012573242184 L 442.1299955749512 227.6401257324219 L 450.1799955749512 220.82012573242184 L 454.7599955749512 213.70012573242184 L 460.6299955749512 214.06012573242185 L 464.7399955749512 217.72012573242182 L 472.1299955749512 211.70012573242184 L 476.8099955749512 214.22012573242182 L 483.1399955749512 210.6301257324218 L 483.4799955749512 203.26012573242178 L 480.3499955749512 199.59012573242182 L 486.69999557495123 194.71012573242183 L 482.55999557495124 193.95012573242184 L 474.6699955749512 195.65012573242188 L 471.7799955749512 198.57012573242184 L 467.3699955749512 193.82012573242184 L 457.4899955749512 193.05012573242186 L 448.8399955749512 186.6101257324218 L 447.9199955749512 179.60012573242182 L 442.4999955749512 168.14012573242178 L 453.4199955749512 164.35012573242182 L 469.67999557495125 160.64012573242178 L 474.8699955749512 162.01012573242178 L 471.94999557495123 169.68012573242174 L 485.63999557495123 172.43012573242174 L 482.8399955749512 161.33012573242172 L 476.6699955749512 153.30012573242175 L 474.3999955749512 144.14012573242178 L 470.44999557495123 135.69012573242173 L 463.68999557495124 128.2401257324217 L 469.4699955749512 120.7301257324217 L 480.0399955749512 123.1001257324217 L 489.3799955749512 117.54012573242176 L 492.7899955749512 109.81012573242174 L 500.56999557495124 103.28012573242177 L 506.5399955749512 102.64012573242178 L 518.8499955749512 97.40012573242177 L 523.7799955749513 99.58012573242178 L 534.0899955749512 92.0001257324218 L 541.9399955749511 97.0701257324219 Z"></path></g><g><path class="land" d="M 611.9499955749511 117.72012573242193 L 623.6799955749511 124.2501257324219 L 634.8199955749512 126.62012573242191 L 639.2299955749512 129.09012573242194 L 647.1599955749512 126.61012573242192 L 655.9699955749511 132.0001257324219 L 662.3899955749512 134.46012573242194 L 662.3899955749512 134.46012573242194 L 662.0999955749512 196.3801257324219 L 661.6899955749511 286.22012573242193 L 669.1899955749511 286.660125732422 L 676.6899955749511 290.81012573242197 L 682.2099955749511 297.390125732422 L 689.4299955749511 307.170125732422 L 696.6699955749511 298.370125732422 L 704.1699955749511 293.040125732422 L 708.7399955749511 300.670125732422 L 714.4099955749512 306.530125732422 L 722.1299955749512 312.800125732422 L 728.0099955749512 323.160125732422 L 737.8799955749512 339.400125732422 L 752.9099955749512 347.31012573242197 L 754.2299955749511 356.57012573242196 L 750.3499955749512 364.19012573242196 L 745.1099955749512 359.170125732422 L 737.2399955749511 355.21012573242194 L 733.6799955749511 342.530125732422 L 722.1199955749512 331.390125732422 L 716.7299955749511 317.56012573242197 L 709.0199955749512 317.10012573242193 L 696.3499955749512 317.4001257324219 L 686.8899955749512 313.4001257324219 L 670.3899955749512 297.96012573242183 L 662.9799955749511 295.0901257324218 L 649.6099955749512 289.4701257324218 L 638.9699955749511 290.4701257324218 L 624.3199955749511 282.7201257324218 L 615.7799955749512 275.5901257324218 L 607.1899955749511 278.19012573242185 L 607.8799955749512 288.95012573242184 L 603.5699955749511 289.57012573242184 L 602.5684401798133 289.8257025726206 L 585.8830366866864 273.807715219219 L 591.8199955749512 271.1301257324219 L 590.1999955749511 267.05012573242186 L 583.6626092125823 271.67610484407896 L 559 248 L 637 235 L 560 197 L 641 167 L 588.0000000000001 140 L 605.9060233421984 118.81540900359626 Z"></path></g><g><path class="land" d="M 553.3999955749512 285.9101257324219 L 546.0799955749512 290.31012573242185 L 537.1299955749512 292.5201257324219 L 537.1299955749512 283.47012573242193 L 542.3499955749512 268.95012573242195 L 544.8830366866864 267.807715219219 L 561.5684401798133 283.8257025726206 Z"></path></g><g><path class="land" d="M 409.40999557495115 188.98012573242193 L 412.4999955749512 193.2701257324219 L 417.17999557495114 193.16012573242188 L 421.2599955749512 198.94012573242185 L 427.29999557495114 203.1201257324218 L 426.21999557495116 204.58012573242183 L 420.04999557495114 206.08012573242183 L 415.9799955749512 201.1101257324218 L 414.33999557495116 197.53012573242177 L 408.1299955749512 196.3401257324217 L 406.9999955749512 194.46012573242172 L 409.40999557495115 188.98012573242193 Z"></path></g><g><path class="land" d="M 434.1899955749512 260.1201257324219 L 428.9999955749512 261.1101257324219 L 424.95999557495117 256.95012573242195 L 421.70999557495117 251.6301257324219 L 429.66999557495114 251.2601257324219 L 435.08999557495116 254.2601257324219 L 434.1899955749512 260.1201257324219 Z"></path></g><g><path class="land" d="M 522.9299955749511 321.70012573242184 L 514.0399955749511 326.19012573242185 L 510.47999557495115 321.7501257324218 L 510.30999557495113 314.6201257324218 L 518.3499955749512 310.43012573242174 L 522.9099955749512 308.7601257324218 L 528.0399955749511 310.4801257324218 L 530.8199955749511 315.55012573242186 L 522.9299955749511 321.70012573242184 Z"></path></g><g><path class="land" d="M 547 134 L 547.0000000000001 134 Z"></path></g></g><g><polyline class="image-line" points="618 50 547 134 600 161 519 191 596 229 518 242 618 338"></polyline></g></svg>